<svg width="28" height="28" viewBox="0 0 28 28" fill="none" xmlns="http://www.w3.org/2000/svg">
<path fill-rule="evenodd" clip-rule="evenodd" d="M13.9999 2.3335C7.55992 2.3335 2.33325 7.56016 2.33325 14.0002C2.33325 20.4402 7.55992 25.6668 13.9999 25.6668C20.4399 25.6668 25.6666 20.4402 25.6666 14.0002C25.6666 7.56016 20.4399 2.3335 13.9999 2.3335ZM13.9999 15.1668C13.3583 15.1668 12.8333 14.6418 12.8333 14.0002V9.3335C12.8333 8.69183 13.3583 8.16683 13.9999 8.16683C14.6416 8.16683 15.1666 8.69183 15.1666 9.3335V14.0002C15.1666 14.6418 14.6416 15.1668 13.9999 15.1668ZM12.8333 17.5002V19.8335H15.1666V17.5002H12.8333Z" fill="#000000"/>
</svg>
