<svg width="28" height="28" viewBox="0 0 28 28" fill="none" xmlns="http://www.w3.org/2000/svg">
<path d="M14.0002 2.64258C18.5151 2.64275 22.1663 6.29468 22.1663 10.8096C22.166 15.6744 17.0104 22.3824 14.8987 24.9375C14.432 25.4975 13.5802 25.4974 13.1135 24.9375C10.9902 22.3826 5.83348 15.6745 5.83325 10.8096C5.83325 6.29457 9.48524 2.64258 14.0002 2.64258ZM14.0002 7.89258C12.3902 7.89258 11.0833 9.19957 11.0833 10.8096C11.0834 12.4194 12.3904 13.7256 14.0002 13.7256C15.61 13.7254 16.9161 12.4193 16.9163 10.8096C16.9163 9.19968 15.6101 7.89275 14.0002 7.89258Z" fill="#000000"/>
</svg>
