<svg width="28" height="28" viewBox="0 0 28 28" fill="none" xmlns="http://www.w3.org/2000/svg">
<path d="M18.6665 8.16699C19.9498 8.16699 21.0005 9.21667 21.0005 10.5V22.167C21.0003 23.4502 19.9497 24.5 18.6665 24.5H9.3335C8.05027 24.5 7.00067 23.4502 7.00049 22.167V10.5C7.00049 9.21667 8.05016 8.16699 9.3335 8.16699H18.6665ZM16.439 3.5C16.7421 3.50013 17.0455 3.62807 17.2554 3.83789L18.0835 4.66699H21.0005C21.6419 4.66717 22.1663 5.1916 22.1665 5.83301C22.1665 6.47457 21.642 6.99982 21.0005 7H7.00049C6.35882 7 5.8335 6.47467 5.8335 5.83301C5.83367 5.19149 6.35893 4.66699 7.00049 4.66699H9.9165L10.7456 3.83789C10.9556 3.62815 11.2589 3.5 11.562 3.5H16.439Z" fill="#C8D8E0"/>
</svg>
