<svg width="32" height="32" viewBox="0 0 32 32" fill="none" xmlns="http://www.w3.org/2000/svg">
<path d="M4.70225 14.3888C4.009 8.74886 8.75569 4.00216 14.3956 4.69542C18.1289 5.14875 21.222 8.10889 21.8487 11.8155C22.3021 14.5221 21.476 17.069 19.8761 18.9357L20.2491 19.296H21.3028L26.9562 24.9757C27.5024 25.5223 27.5024 26.4154 26.9562 26.962C26.4095 27.5087 25.5155 27.5087 24.9689 26.962L19.3028 21.296V20.2423L18.9425 19.8692C17.0758 21.4692 14.529 22.2952 11.8224 21.8419C8.11573 21.2152 5.15558 18.1221 4.70225 14.3888ZM13.3028 7.296C9.98284 7.296 7.30284 9.976 7.30284 13.296C7.30309 16.6158 9.98299 19.296 13.3028 19.296C16.6225 19.2958 19.3026 16.6156 19.3028 13.296C19.3028 9.97616 16.6226 7.29625 13.3028 7.296Z" fill="#C8D8E0"/>
</svg>
