<svg width="25" height="19" viewBox="0 0 25 19" fill="none" xmlns="http://www.w3.org/2000/svg">
<path d="M0 12.4067C0 12.1535 0.102041 11.9206 0.306122 11.7079C0.530612 11.5155 0.77551 11.4142 1.02041 11.4142H3.39796C3.67347 11.4142 3.89796 11.5155 4.08163 11.7079C4.26531 11.9003 4.35714 12.1434 4.35714 12.4067C4.35714 12.7004 4.26531 12.9435 4.08163 13.1359C3.89796 13.3284 3.66327 13.4296 3.39796 13.4296H1.02041C0.744898 13.4296 0.510204 13.3284 0.306122 13.1258C0.102041 12.9131 0 12.67 0 12.4067ZM3.39796 4.32463C3.39796 4.05117 3.4898 3.81823 3.66327 3.63593C3.89796 3.43337 4.13265 3.33209 4.38776 3.33209C4.65306 3.33209 4.88776 3.43337 5.08163 3.6258L6.7551 5.29691C6.94898 5.51972 7.04082 5.75267 7.04082 5.99574C7.04082 6.27932 6.94898 6.52239 6.76531 6.70469C6.58163 6.88699 6.35714 6.98827 6.09184 6.98827C5.84694 6.98827 5.60204 6.88699 5.37755 6.69456L3.66327 5.06397C3.4898 4.85128 3.39796 4.59808 3.39796 4.32463ZM5.43878 17.9973C5.43878 17.7138 5.54082 17.4808 5.73469 17.3086C5.91837 17.1365 6.14286 17.0453 6.42857 17.0453H9.11225L12.2857 14.088C12.3878 14.0069 12.5 14.0069 12.6327 14.088L15.8571 17.0453H18.6837C18.9592 17.0453 19.1939 17.1365 19.3878 17.3289C19.5816 17.5112 19.6837 17.7441 19.6837 18.0075C19.6837 18.2809 19.5816 18.5139 19.3878 18.7063C19.1939 18.8987 18.9592 19 18.6837 19H15.2347C15.1327 19 15.0306 18.9797 14.9388 18.9291L12.4796 16.6301L10.0408 18.9291C9.95918 18.9797 9.86735 19 9.7551 19H6.42857C6.15306 19 5.91837 18.8987 5.72449 18.7063C5.53061 18.5037 5.43878 18.2708 5.43878 17.9973ZM6.37755 12.4067C6.37755 13.3891 6.59184 14.2804 7.0102 15.0805C7.03061 15.202 7.12245 15.2628 7.26531 15.2628H9.18367C9.2551 15.2628 9.30612 15.2324 9.33673 15.1818C9.36735 15.121 9.35714 15.0602 9.31633 14.9893C8.66326 14.2095 8.33673 13.3486 8.33673 12.4067C8.33673 11.2724 8.7449 10.3001 9.56122 9.5C10.3776 8.69989 11.3571 8.3049 12.5102 8.3049C13.6531 8.3049 14.6224 8.69989 15.4286 9.5C16.2347 10.3001 16.6429 11.2623 16.6429 12.4067C16.6429 13.3587 16.3163 14.2196 15.6735 14.9893C15.6327 15.0602 15.6224 15.121 15.6429 15.1818C15.6633 15.2425 15.7143 15.2628 15.7959 15.2628H17.7347C17.8673 15.2628 17.949 15.202 17.9694 15.0805C18.4184 14.3006 18.6224 13.4094 18.6224 12.4067C18.6224 11.5864 18.4592 10.7964 18.1327 10.057C17.8061 9.30757 17.3673 8.66951 16.8265 8.1226C16.2857 7.58582 15.6327 7.15032 14.8776 6.82623C14.1224 6.50213 13.3367 6.35021 12.5102 6.35021C11.6837 6.35021 10.8878 6.51226 10.1327 6.82623C9.37755 7.15032 8.72449 7.57569 8.17347 8.1226C7.62245 8.65938 7.18367 9.30757 6.85714 10.057C6.54082 10.7964 6.37755 11.5762 6.37755 12.4067ZM11.5102 3.33209V1.00267C11.5102 0.708955 11.602 0.476013 11.7959 0.283582C11.9898 0.0911516 12.2347 0 12.5204 0C12.8061 0 13.0408 0.0911516 13.2347 0.283582C13.4286 0.476013 13.5204 0.729211 13.5204 1.01279V3.34222C13.5204 3.63593 13.4286 3.86887 13.2347 4.0613C13.051 4.2436 12.8061 4.34488 12.5204 4.34488C12.2245 4.34488 11.9898 4.25373 11.7959 4.0613C11.602 3.86887 11.5102 3.6258 11.5102 3.33209ZM17.9898 6.00586C17.9898 5.75267 18.0816 5.51972 18.2653 5.30704L19.9184 3.63593C20.1122 3.4435 20.3571 3.34222 20.6327 3.34222C20.9082 3.34222 21.1531 3.4435 21.3367 3.63593C21.5306 3.82836 21.6224 4.0613 21.6224 4.33475C21.6224 4.62846 21.5306 4.87154 21.3571 5.07409L19.6429 6.70469C19.4286 6.89712 19.1837 6.9984 18.9286 6.9984C18.6531 6.9984 18.4286 6.90725 18.2551 6.71482C18.0816 6.52239 17.9898 6.28945 17.9898 6.00586ZM20.6531 12.4067C20.6531 12.1333 20.7449 11.9003 20.9286 11.7079C21.1122 11.5155 21.3367 11.4142 21.602 11.4142H24C24.2755 11.4142 24.5102 11.5155 24.7041 11.7079C24.898 11.9003 25 12.1434 25 12.4067C25 12.6903 24.898 12.9232 24.7041 13.1258C24.5102 13.3284 24.2755 13.4296 24 13.4296H21.602C21.3265 13.4296 21.102 13.3284 20.9184 13.1359C20.7449 12.9334 20.6531 12.6903 20.6531 12.4067Z" fill="#3E4345"/>
</svg>
