<svg width="25" height="22" viewBox="0 0 25 22" fill="none" xmlns="http://www.w3.org/2000/svg">
<path d="M0 12.4496C0 12.162 0.103093 11.936 0.309278 11.7511C0.484536 11.5662 0.721649 11.4841 1.01031 11.4841H3.39175C3.6701 11.4841 3.89691 11.5765 4.08247 11.7614C4.25773 11.9463 4.35051 12.1723 4.35051 12.4496C4.35051 12.7372 4.25773 12.9838 4.07216 13.1789C3.8866 13.3741 3.65979 13.4768 3.39175 13.4768H1.02062C0.742268 13.4768 0.505155 13.3741 0.309278 13.1687C0.103093 12.9632 0 12.727 0 12.4496ZM3.39175 4.37586C3.39175 4.08825 3.47423 3.85199 3.64948 3.67737C3.85567 3.47193 4.09278 3.36921 4.37113 3.36921C4.6701 3.36921 4.89691 3.47193 5.07216 3.67737L6.74227 5.3517C7.21649 5.80367 7.21649 6.2659 6.74227 6.73841C6.54639 6.93358 6.3299 7.02603 6.07217 7.02603C5.84536 7.02603 5.61856 6.93358 5.37113 6.73841L3.65979 5.07436C3.48454 4.88946 3.39175 4.6532 3.39175 4.37586ZM5.42268 18.017C5.42268 17.75 5.52577 17.5137 5.73196 17.3083C5.91752 17.1234 6.15464 17.0309 6.43299 17.0309H9.75258C9.86598 17.0309 9.95876 17.0515 10.0412 17.1131L12.4639 19.3935L14.9278 17.1028C15 17.0515 15.1031 17.0207 15.2268 17.0207H18.6289C18.9072 17.0207 19.1443 17.1131 19.3402 17.3083C19.5361 17.5034 19.6392 17.7397 19.6392 18.0068C19.6392 18.2841 19.5361 18.5204 19.3402 18.7155C19.1443 18.9107 18.9072 19.0134 18.6289 19.0134H15.866L12.6289 21.9307C12.5052 22.0231 12.3918 22.0231 12.2887 21.9307L9.1134 19.0134H6.43299C6.15464 19.0134 5.91753 18.9107 5.72165 18.7155C5.52577 18.5306 5.42268 18.2944 5.42268 18.017ZM6.39175 12.4496C6.39175 13.4666 6.58763 14.3705 6.98969 15.1409C7.05155 15.2539 7.14433 15.3052 7.26804 15.3052H9.19588C9.27835 15.3052 9.3299 15.2847 9.35051 15.2333C9.37113 15.182 9.34021 15.1203 9.27835 15.0484C8.6701 14.2883 8.36082 13.4152 8.36082 12.4496C8.36082 11.3197 8.76289 10.3541 9.57732 9.56321C10.3918 8.77226 11.3711 8.37166 12.5155 8.37166C13.6495 8.37166 14.6186 8.77226 15.433 9.56321C16.2371 10.3644 16.6495 11.3197 16.6495 12.4394C16.6495 13.4049 16.3402 14.278 15.732 15.0382C15.6598 15.1101 15.6392 15.1717 15.6598 15.2231C15.6804 15.2744 15.732 15.295 15.8144 15.295H17.7526C17.8866 15.295 17.9691 15.2436 18 15.1306C18.4227 14.3294 18.6392 13.4255 18.6392 12.4394C18.6392 11.6279 18.4742 10.8369 18.1546 10.0871C17.8351 9.33722 17.3918 8.67982 16.8454 8.1354C16.299 7.59099 15.6495 7.15957 14.8969 6.83086C14.1443 6.50216 13.3505 6.34808 12.5258 6.34808C11.701 6.34808 10.9072 6.51243 10.1546 6.83086C9.40206 7.15957 8.75258 7.59099 8.20619 8.1354C7.65979 8.67982 7.2268 9.32695 6.89691 10.0871C6.56701 10.8472 6.39175 11.6381 6.39175 12.4496ZM11.5052 3.40002V1.00665C11.5052 0.72931 11.6082 0.493055 11.8041 0.297887C12 0.10272 12.2371 0 12.5155 0C12.7938 0 13.0309 0.10272 13.2268 0.297887C13.4227 0.493055 13.5258 0.72931 13.5258 1.00665V3.38975C13.5258 3.66709 13.4227 3.90335 13.2268 4.09852C13.0309 4.29369 12.7938 4.3964 12.5155 4.3964C12.2371 4.3964 12 4.29369 11.8041 4.09852C11.5979 3.90335 11.5052 3.67737 11.5052 3.40002ZM17.9691 6.05019C17.9691 5.76258 18.0619 5.52632 18.2371 5.36197L19.9175 3.68764C20.0825 3.4822 20.3196 3.37948 20.6186 3.37948C20.8969 3.37948 21.134 3.4822 21.3196 3.67737C21.5052 3.87253 21.5979 4.10879 21.5979 4.38613C21.5979 4.67375 21.5155 4.91 21.3402 5.08463L19.6289 6.75896C19.3918 6.95413 19.1546 7.04657 18.9175 7.04657C18.6495 7.04657 18.4227 6.95413 18.2371 6.75896C18.0619 6.56379 17.9691 6.32754 17.9691 6.05019ZM20.6392 12.4496C20.6392 12.1723 20.732 11.9463 20.9072 11.7614C21.0825 11.5765 21.3196 11.4841 21.5979 11.4841H23.9897C24.268 11.4841 24.5052 11.5765 24.701 11.7614C24.8969 11.9463 25 12.1723 25 12.4496C25 12.727 24.8969 12.9632 24.701 13.1687C24.5052 13.3741 24.268 13.4768 23.9897 13.4768H21.5979C21.3299 13.4768 21.1031 13.3741 20.9175 13.1789C20.732 12.9838 20.6392 12.7372 20.6392 12.4496Z" fill="#3E4345"/>
</svg>
