<svg width="38" height="26" viewBox="0 0 38 26" fill="none" xmlns="http://www.w3.org/2000/svg">
<path d="M0 17.0636C0 14.9958 0.647303 13.1618 1.94191 11.5436C3.23651 9.92531 4.87275 8.88243 6.8686 8.43292C7.426 5.96957 8.70263 3.95574 10.6625 2.37344C12.6224 0.791148 14.888 0 17.4232 0C19.9046 0 22.1162 0.773168 24.0581 2.30152C26 3.82988 27.2586 5.80775 27.834 8.21715H28.4274C30.0456 8.21715 31.538 8.61272 32.9046 9.38589C34.2711 10.1591 35.3679 11.2379 36.1591 12.6044C36.9502 13.971 37.3638 15.4454 37.3638 17.0636C37.3638 18.6459 36.9862 20.1203 36.231 21.4689C35.4758 22.8174 34.4329 23.8963 33.1203 24.7054C31.8077 25.5145 30.3513 25.9461 28.787 26H8.6307C6.2213 25.8921 4.18949 24.9751 2.51729 23.249C0.84509 21.5408 0 19.473 0 17.0636ZM3.07469 17.0636C3.07469 18.6279 3.61411 19.9765 4.69295 21.1272C5.77178 22.278 7.08437 22.8893 8.6307 22.9793H28.751C30.2974 22.9073 31.61 22.278 32.6888 21.1272C33.7856 19.9765 34.325 18.61 34.325 17.0636C34.325 15.4813 33.7317 14.1328 32.5629 12.982C31.3942 11.8313 30.0097 11.2559 28.3914 11.2559H25.5145C25.3167 11.2559 25.2088 11.148 25.2088 10.9322L25.083 9.90733C24.8852 7.96542 24.0401 6.32918 22.5657 5.0166C21.0913 3.70401 19.3831 3.03873 17.4232 3.03873C15.4633 3.03873 13.7372 3.70401 12.2988 5.0166C10.8423 6.32918 10.0152 7.96542 9.83541 9.90733L9.69156 10.9322C9.69156 11.148 9.5657 11.2559 9.33195 11.2559H8.37898C6.8686 11.4357 5.60996 12.083 4.60304 13.1798C3.59613 14.2766 3.07469 15.5712 3.07469 17.0636Z" fill="#C8D8E0"/>
</svg>
