<svg width="18" height="24" viewBox="0 0 18 24" fill="none" xmlns="http://www.w3.org/2000/svg">
<path d="M0 14.3068C0 15.8945 0.396932 17.3787 1.20805 18.7421C2.01918 20.1055 3.10642 21.21 4.48706 22.0211C5.86769 22.8322 7.35187 23.2464 8.95685 23.2464C10.5618 23.2464 12.0633 22.8322 13.4612 22.0211C14.8591 21.21 15.9636 20.1055 16.7747 18.7421C17.5858 17.3615 18 15.8945 18 14.3068C18 13.2713 17.7066 12.046 17.1026 10.6136C16.4986 9.18121 15.7737 7.85235 14.9281 6.6443C14.1687 5.6606 13.2713 4.57335 12.2359 3.39981C11.2004 2.22627 9.3883 0.41419 8.97411 0L6.7651 2.22627C5.69511 3.26175 4.65963 4.45254 3.67593 5.81592C2.69223 7.17929 1.82934 8.64621 1.10451 10.2167C0.345157 11.7872 0 13.1505 0 14.3068Z" fill="#C8D8E0"/>
</svg>
